{
	"asset":{
		"copyright":"Blender2Quick3DMadeByZhiningJiao",
		"generator":"Khronos glTF Blender I/O v4.1.62",
		"version":"2.0"
	},
	"extensionsUsed":[
		"KHR_lights_punctual"
	],
	"extensionsRequired":[
		"KHR_lights_punctual"
	],
	"extensions":{
		"KHR_lights_punctual":{
			"lights":[
				{
					"color":[
						1,
						1,
						1
					],
					"intensity":1,
					"type":"directional",
					"name":"Light"
				}
			]
		}
	},
	"scene":0,
	"scenes":[
		{
			"extras":{
				"quick3d_properties":{
					"output_format":3,
					"qml_output_path":"//quick3d_scene.qml",
					"use_blender_materials":1,
					"use_blender_lights":1
				},
				"show_scene_settings":1,
				"qtquick3d_use_extended_environment":1
			},
			"name":"Scene",
			"nodes":[
				0,
				1,
				2,
				3,
				4
			]
		}
	],
	"nodes":[
		{
			"mesh":0,
			"name":"Cube"
		},
		{
			"extensions":{
				"KHR_lights_punctual":{
					"light":0
				}
			},
			"name":"Light",
			"rotation":[
				-0.28416627645492554,
				0.7269423007965088,
				0.34203392267227173,
				0.5232754945755005
			],
			"translation":[
				4.076245307922363,
				5.903861999511719,
				-1.0054539442062378
			]
		},
		{
			"camera":0,
			"name":"Camera",
			"rotation":[
				-0.14609475433826447,
				0.18551097810268402,
				0.027901988476514816,
				0.9713205099105835
			],
			"translation":[
				25.55875587463379,
				17.79308319091797,
				53.507904052734375
			]
		},
		{
			"mesh":1,
			"name":"Suzanne",
			"scale":[
				3.980250597000122,
				3.980250597000122,
				3.980250597000122
			],
			"translation":[
				-2.0306472778320312,
				4.992185115814209,
				-1.5564146041870117
			]
		},
		{
			"mesh":2,
			"name":"Suzanne.001",
			"rotation":[
				-0.5621836185455322,
				-0.36529818177223206,
				-0.524832010269165,
				0.5244598388671875
			],
			"scale":[
				9.612472534179688,
				9.612472534179688,
				9.612472534179688
			],
			"translation":[
				10.794408798217773,
				0.5522462129592896,
				0.1823272705078125
			]
		}
	],
	"cameras":[
		{
			"name":"Camera",
			"perspective":{
				"aspectRatio":1.7777777777777777,
				"yfov":0.39959652046304894,
				"zfar":3194.999755859375,
				"znear":0.10000000149011612
			},
			"type":"perspective"
		}
	],
	"materials":[
		{
			"doubleSided":true,
			"name":"Material.001",
			"pbrMetallicRoughness":{
				"baseColorTexture":{
					"index":0
				},
				"metallicFactor":0,
				"roughnessFactor":0.3417721390724182
			}
		}
	],
	"meshes":[
		{
			"name":"Cube",
			"primitives":[
				{
					"attributes":{
						"POSITION":0,
						"NORMAL":1,
						"TEXCOORD_0":2,
						"TANGENT":3
					},
					"indices":4,
					"material":0
				}
			]
		},
		{
			"name":"Suzanne",
			"primitives":[
				{
					"attributes":{
						"POSITION":5,
						"NORMAL":6,
						"TEXCOORD_0":7,
						"TANGENT":8
					},
					"indices":9,
					"material":0
				}
			]
		},
		{
			"name":"Mesh",
			"primitives":[
				{
					"attributes":{
						"POSITION":10,
						"NORMAL":11,
						"TEXCOORD_0":12,
						"TANGENT":13
					},
					"indices":14,
					"material":0
				}
			]
		}
	],
	"textures":[
		{
			"sampler":0,
			"source":0
		}
	],
	"images":[
		{
			"bufferView":5,
			"mimeType":"image/png",
			"name":"qt_logo_rect2"
		}
	],
	"accessors":[
		{
			"bufferView":0,
			"componentType":5126,
			"count":24,
			"max":[
				1,
				1,
				1
			],
			"min":[
				-1,
				-1,
				-1
			],
			"type":"VEC3"
		},
		{
			"bufferView":1,
			"componentType":5126,
			"count":24,
			"type":"VEC3"
		},
		{
			"bufferView":2,
			"componentType":5126,
			"count":24,
			"type":"VEC2"
		},
		{
			"bufferView":3,
			"componentType":5126,
			"count":24,
			"type":"VEC4"
		},
		{
			"bufferView":4,
			"componentType":5123,
			"count":36,
			"type":"SCALAR"
		},
		{
			"bufferView":6,
			"componentType":5126,
			"count":1966,
			"max":[
				1.3671875,
				0.984375,
				0.8515625
			],
			"min":[
				-1.3671875,
				-0.984375,
				-0.8515625
			],
			"type":"VEC3"
		},
		{
			"bufferView":7,
			"componentType":5126,
			"count":1966,
			"type":"VEC3"
		},
		{
			"bufferView":8,
			"componentType":5126,
			"count":1966,
			"type":"VEC2"
		},
		{
			"bufferView":9,
			"componentType":5126,
			"count":1966,
			"type":"VEC4"
		},
		{
			"bufferView":10,
			"componentType":5123,
			"count":2904,
			"type":"SCALAR"
		},
		{
			"bufferView":11,
			"componentType":5126,
			"count":11551,
			"max":[
				1.328185796737671,
				0.9392362236976624,
				0.8224414587020874
			],
			"min":[
				-1.328185796737671,
				-0.971822202205658,
				-0.7782661318778992
			],
			"type":"VEC3"
		},
		{
			"bufferView":12,
			"componentType":5126,
			"count":11551,
			"type":"VEC3"
		},
		{
			"bufferView":13,
			"componentType":5126,
			"count":11551,
			"type":"VEC2"
		},
		{
			"bufferView":14,
			"componentType":5126,
			"count":11551,
			"type":"VEC4"
		},
		{
			"bufferView":15,
			"componentType":5123,
			"count":47232,
			"type":"SCALAR"
		}
	],
	"bufferViews":[
		{
			"buffer":0,
			"byteLength":288,
			"byteOffset":0,
			"target":34962
		},
		{
			"buffer":0,
			"byteLength":288,
			"byteOffset":288,
			"target":34962
		},
		{
			"buffer":0,
			"byteLength":192,
			"byteOffset":576,
			"target":34962
		},
		{
			"buffer":0,
			"byteLength":384,
			"byteOffset":768,
			"target":34962
		},
		{
			"buffer":0,
			"byteLength":72,
			"byteOffset":1152,
			"target":34963
		},
		{
			"buffer":0,
			"byteLength":8365,
			"byteOffset":1224
		},
		{
			"buffer":0,
			"byteLength":23592,
			"byteOffset":9592,
			"target":34962
		},
		{
			"buffer":0,
			"byteLength":23592,
			"byteOffset":33184,
			"target":34962
		},
		{
			"buffer":0,
			"byteLength":15728,
			"byteOffset":56776,
			"target":34962
		},
		{
			"buffer":0,
			"byteLength":31456,
			"byteOffset":72504,
			"target":34962
		},
		{
			"buffer":0,
			"byteLength":5808,
			"byteOffset":103960,
			"target":34963
		},
		{
			"buffer":0,
			"byteLength":138612,
			"byteOffset":109768,
			"target":34962
		},
		{
			"buffer":0,
			"byteLength":138612,
			"byteOffset":248380,
			"target":34962
		},
		{
			"buffer":0,
			"byteLength":92408,
			"byteOffset":386992,
			"target":34962
		},
		{
			"buffer":0,
			"byteLength":184816,
			"byteOffset":479400,
			"target":34962
		},
		{
			"buffer":0,
			"byteLength":94464,
			"byteOffset":664216,
			"target":34963
		}
	],
	"samplers":[
		{
			"magFilter":9729,
			"minFilter":9987
		}
	],
	"buffers":[
		{
			"byteLength":758680,
			"uri":"data:application/octet-stream;base64,"
		}
	]
}
